<svg xmlns="http://www.w3.org/2000/svg" viewBox="0 0 61 62" fill="none">
  <path d="M10.45 0V22.344H19.38V28.652H3.002V0H10.45Z" fill="#6B8F71"/>
  <path d="M39.5286 6.308H30.6746V11.096H39.0346V17.404H30.6746V22.344H39.5286V28.652H23.2266V0H39.5286V6.308Z" fill="#6B8F71"/>
  <path d="M10.45 54.876H12.084C13.9587 54.876 15.3013 54.6353 16.112 54.154C16.9227 53.6727 17.328 52.9 17.328 51.836C17.328 50.772 16.9227 49.9993 16.112 49.518C15.3013 49.0367 13.9587 48.796 12.084 48.796H10.45V54.876ZM10.45 43.248H11.818C14.1487 43.248 15.314 42.3233 15.314 40.474C15.314 38.6247 14.1487 37.7 11.818 37.7H10.45V43.248ZM3.002 32H14.098C16.7327 32 18.734 32.6333 20.102 33.9C21.47 35.1667 22.154 36.9907 22.154 39.372C22.154 40.816 21.888 42.0193 21.356 42.982C20.8493 43.9193 20.064 44.7173 19 45.376C20.064 45.5787 20.9633 45.8953 21.698 46.326C22.458 46.7313 23.066 47.238 23.522 47.846C24.0033 48.454 24.3453 49.138 24.548 49.898C24.7507 50.658 24.852 51.4687 24.852 52.33C24.852 53.6727 24.6113 54.8633 24.13 55.902C23.674 56.9407 23.0153 57.8147 22.154 58.524C21.318 59.2333 20.292 59.7653 19.076 60.12C17.86 60.4747 16.492 60.652 14.972 60.652H3.002V32Z" fill="#6B8F71"/>
  <path d="M44.4843 50.012L41.1403 40.474L37.7963 50.012H44.4843ZM46.4603 55.674H35.8203L34.1103 60.652H26.1683L37.0743 32H45.2063L56.1123 60.652H48.1703L46.4603 55.674Z" fill="#6B8F71"/>
</svg>
